<?xml version="1.0" encoding="UTF-8" standalone="no"?>
<svg
   width="759"
   height="758"
   viewBox="0 0 759 758"
   fill="none"
   version="1.1"
   id="svg22"
   sodipodi:docname="Group 5.svg"
   inkscape:version="1.2 (dc2aeda, 2022-05-15)"
   xmlns:inkscape="http://www.inkscape.org/namespaces/inkscape"
   xmlns:sodipodi="http://sodipodi.sourceforge.net/DTD/sodipodi-0.dtd"
   xmlns="http://www.w3.org/2000/svg"
   xmlns:svg="http://www.w3.org/2000/svg">
  <defs
     id="defs26" />
  <sodipodi:namedview
     id="namedview24"
     pagecolor="#ffffff"
     bordercolor="#000000"
     borderopacity="0.25"
     inkscape:showpageshadow="2"
     inkscape:pageopacity="0"
     inkscape:pagecheckerboard="0"
     inkscape:deskcolor="#d7d7d7"
     showgrid="false"
     inkscape:zoom="0.47902287"
     inkscape:cx="624.18732"
     inkscape:cy="-105.42294"
     inkscape:window-width="1424"
     inkscape:window-height="1205"
     inkscape:window-x="2240"
     inkscape:window-y="25"
     inkscape:window-maximized="0"
     inkscape:current-layer="svg22" />
  <path
     d="M72 567.125L205.582 236.454C212.37 219.652 236.216 219.816 242.772 236.71L350.217 513.589C356.637 530.132 379.82 530.742 387.101 514.559L496.463 271.491C503.338 256.212 524.827 255.651 532.489 270.551L685 567.125"
     stroke="#E93041"
     stroke-width="50"
     id="path2"
     style="stroke:#ffffff" />
  <path
     d="M757.427 399.626C746.836 593.554 590.456 748.667 396 757.251V728.242C574.777 719.957 718.571 577.741 729.349 399.626H757.427ZM29.6501 399.626C40.3884 577.076 183.152 718.896 361 728.145V757.204C167.008 748.134 11.1469 593.221 0.573975 399.626H29.6501ZM396 0C592.79 8.68661 750.585 167.443 757.745 364.626H729.745C722.859 182.786 577.446 36.4163 396 28.0078V0ZM361 28.1064C180.487 37.4937 36.1155 183.455 29.2546 364.626H0.255615C7.40351 167.777 164.675 9.22646 361 0.046875V28.1064Z"
     fill="#E93041"
     id="path4"
     style="fill:#ffffff" />
  <path
     d="M361 0.125549H364C369.523 0.125549 374 4.6027 374 10.1255V18.1255C374 23.6484 369.523 28.1255 364 28.1255H361V0.125549Z"
     fill="#E93041"
     id="path6"
     style="fill:#ffffff" />
  <path
     d="M399 0.125549H396C390.477 0.125549 386 4.6027 386 10.1255V18.1255C386 23.6484 390.477 28.1255 396 28.1255H399V0.125549Z"
     fill="#E93041"
     id="path8"
     style="fill:#ffffff" />
  <path
     d="M396.103 757.248L393.103 757.259C387.58 757.279 383.087 752.818 383.067 747.295L383.035 738.345C383.015 732.822 387.476 728.329 392.999 728.309L395.999 728.299L396.103 757.248Z"
     fill="#E93041"
     id="path10"
     style="fill:#ffffff" />
  <path
     d="M358.048 757.2L361.048 757.189C366.571 757.169 371.032 752.676 371.012 747.153L370.979 738.083C370.96 732.56 366.466 728.099 360.944 728.118L357.944 728.129L358.048 757.2Z"
     fill="#E93041"
     id="path12"
     style="fill:#ffffff" />
  <path
     d="M29.1995 363.625L29.2518 366.625C29.3482 372.147 24.9499 376.702 19.4279 376.798L10.4292 376.955C4.90723 377.051 0.352623 372.653 0.256237 367.131L0.203879 364.132L29.1995 363.625Z"
     fill="#E93041"
     id="path14"
     style="fill:#ffffff" />
  <path
     d="M757.701 363.613L757.754 366.613C757.85 372.135 753.452 376.689 747.93 376.786L739.949 376.925C734.427 377.021 729.873 372.623 729.776 367.101L729.724 364.102L757.701 363.613Z"
     fill="#E93041"
     id="path16"
     style="fill:#ffffff" />
  <path
     d="M29.6587 401.62L29.6063 398.62C29.5099 393.098 24.9553 388.7 19.4333 388.796L10.4347 388.953C4.9127 389.05 0.514364 393.604 0.610751 399.126L0.663108 402.126L29.6587 401.62Z"
     fill="#E93041"
     id="path18"
     style="fill:#ffffff" />
  <path
     d="M757.31 402.326L757.414 399.328C757.607 393.808 753.289 389.177 747.77 388.984L739.699 388.702C734.18 388.509 729.549 392.827 729.356 398.346L729.251 401.344L757.31 402.326Z"
     fill="#E93041"
     id="path20"
     style="fill:#ffffff" />
</svg>
